
<svg width="1000" height="800" xmlns="http://www.w3.org/2000/svg">
  <style>
    .title { font: bold 36px Arial, sans-serif; fill: #2c3e50; }
    .section-title { font: bold 28px Arial, sans-serif; fill: #2c3e50; }
    .text { font: 22px Arial, sans-serif; fill: #34495e; }
  </style>
  <rect width="100%" height="100%" fill="#f9f9f9"/>
  <text x="500" y="80" class="title" text-anchor="middle">eIRC Licensing Overview</text>
  <text x="500" y="140" class="section-title" text-anchor="middle">Licensing Compatibility with Commercial Use</text>

  <g transform="translate(318, 181) scale(0.6)"><path d="M24.5 50.5c-1.5 0-2.5 1.2-2.5 2.7v14.1l-15.9-16c-.8-.8-2.2-1-3.2-.6S1 52.1 1 53.2v20.7c0 1.5 1.5 2.7 3 2.7s3-1.2 3-2.7V59.8l16.1 16c.5.5 1.2.8 1.9.8.3 0 .4-.1.7-.2 1-.4 1.3-1.4 1.3-2.5V53.3c0-1.5-1-2.8-2.5-2.8zm19.7 11.8c-1.4 0-2.7 1.4-2.7 2.8s1.3 2.8 2.7 2.8l6.6.4-1.5 3.7h-8.5l-4.2-7.9 4.3-8.1H50l2.1 4h5.5L54 52.1l-.8-1.1H37.6l-.7 1.2L31 62.5l-.7 1.3.7 1.3 5.8 10.3.8 1.6h15.1l.7-1.7 4.3-9 1.9-4.3h-4.4l-11 .3zM65 50.5c-1.4 0-3 1.3-3 2.7V60h6v-6.7c0-1.5-1.6-2.8-3-2.8zm30.4.3c-1-.4-2.4-.2-3.1.6L76 67.4V53.3c0-1.5-1-2.7-2.5-2.7S71 51.8 71 53.3V74c0 1.1.7 2.1 1.7 2.5.3.1.7.2 1 .2.7 0 1.6-.3 2.1-.8l16.2-16V74c0 1.5 1 2.7 2.5 2.7S97 75.5 97 74V53.3c0-1.1-.6-2.1-1.6-2.5zm21.8 12.8l8.4-8.4c1.1-1.1 1.1-2.8 0-3.8-1.1-1.1-2.8-1.1-3.8 0l-8.4 8.4-8.4-8.4c-1.1-1.1-2.8-1.1-3.8 0-1.1 1.1-1.1 2.8 0 3.8l8.4 8.4-8.4 8.4c-1.1 1.1-1.1 2.8 0 3.8.5.5 1.2.8 1.9.8s1.4-.3 1.9-.8l8.4-8.4 8.4 8.4c.5.5 1.2.8 1.9.8s1.4-.3 1.9-.8c1.1-1.1 1.1-2.8 0-3.8l-8.4-8.4zM62 73.9c0 1.4 1.5 2.7 3 2.7 1.4 0 3-1.3 3-2.7V62h-6v11.9z" fill="#090"/></g>
  <text x="420" y="220" class="text">OpenResty (Nginx + LuaJIT) - BSD/MIT</text>

  <g transform="translate(318, 261) scale(0.6)"><path fill="url(#a)" d="M0 64c0 18.593 28.654 33.667 64 33.667 35.346 0 64-15.074 64-33.667 0-18.593-28.655-33.667-64-33.667C28.654 30.333 0 45.407 0 64Z"/><path fill="#777bb3" d="M64 95.167c33.965 0 61.5-13.955 61.5-31.167 0-17.214-27.535-31.167-61.5-31.167S2.5 46.786 2.5 64c0 17.212 27.535 31.167 61.5 31.167Z"/><path d="M34.772 67.864c2.793 0 4.877-.515 6.196-1.53 1.306-1.006 2.207-2.747 2.68-5.175.44-2.27.272-3.854-.5-4.71-.788-.874-2.493-1.317-5.067-1.317h-4.464l-2.473 12.732zM20.173 83.547a.694.694 0 0 1-.68-.828l6.557-33.738a.695.695 0 0 1 .68-.561h14.134c4.442 0 7.748 1.206 9.827 3.585 2.088 2.39 2.734 5.734 1.917 9.935-.333 1.711-.905 3.3-1.7 4.724a15.818 15.818 0 0 1-3.128 3.92c-1.531 1.432-3.264 2.472-5.147 3.083-1.852.604-4.232.91-7.07.91h-5.724l-1.634 8.408a.695.695 0 0 1-.682.562z"/><path fill="#fff" d="M34.19 55.826h3.891c3.107 0 4.186.682 4.553 1.089.607.674.723 2.097.331 4.112-.439 2.257-1.253 3.858-2.42 4.756-1.194.92-3.138 1.386-5.773 1.386h-2.786l2.205-11.342zm6.674-8.1H26.731a1.39 1.39 0 0 0-1.364 1.123L18.81 82.588a1.39 1.39 0 0 0 1.363 1.653h7.35a1.39 1.39 0 0 0 1.363-1.124l1.525-7.846h5.151c2.912 0 5.364-.318 7.287-.944 1.977-.642 3.796-1.731 5.406-3.237a16.522 16.522 0 0 0 3.259-4.087c.831-1.487 1.429-3.147 1.775-4.931.86-4.423.161-7.964-2.076-10.524-2.216-2.537-5.698-3.823-10.349-3.823zM30.301 68.557h4.471c2.963 0 5.17-.557 6.62-1.675 1.451-1.116 2.428-2.98 2.938-5.591.485-2.508.264-4.277-.665-5.308-.931-1.03-2.791-1.546-5.584-1.546h-5.036l-2.743 14.12m10.563-19.445c4.252 0 7.353 1.117 9.303 3.348 1.95 2.232 2.536 5.347 1.76 9.346-.322 1.648-.863 3.154-1.625 4.518-.764 1.366-1.76 2.614-2.991 3.747-1.468 1.373-3.097 2.352-4.892 2.935-1.794.584-4.08.875-6.857.875h-6.296l-1.743 8.97h-7.35l6.558-33.739h14.133"/><path d="M69.459 74.577a.694.694 0 0 1-.682-.827l2.9-14.928c.277-1.42.209-2.438-.19-2.87-.245-.263-.979-.704-3.15-.704h-5.256l-3.646 18.768a.695.695 0 0 1-.683.56h-7.29a.695.695 0 0 1-.683-.826l6.558-33.739a.695.695 0 0 1 .682-.561h7.29a.695.695 0 0 1 .683.826L64.41 48.42h5.653c4.307 0 7.227.758 8.928 2.321 1.733 1.593 2.275 4.14 1.608 7.573l-3.051 15.702a.695.695 0 0 1-.682.56h-7.407z"/><path fill="#fff" d="M65.31 38.755h-7.291a1.39 1.39 0 0 0-1.364 1.124l-6.557 33.738a1.39 1.39 0 0 0 1.363 1.654h7.291a1.39 1.39 0 0 0 1.364-1.124l3.537-18.205h4.682c2.168 0 2.624.463 2.641.484.132.14.305.795.019 2.264l-2.9 14.927a1.39 1.39 0 0 0 1.364 1.654h7.408a1.39 1.39 0 0 0 1.363-1.124l3.051-15.7c.715-3.686.103-6.45-1.82-8.217-1.836-1.686-4.91-2.505-9.398-2.505h-4.81l1.421-7.315a1.39 1.39 0 0 0-1.364-1.655zm0 1.39-1.743 8.968h6.496c4.087 0 6.907.714 8.457 2.14 1.553 1.426 2.017 3.735 1.398 6.93l-3.052 15.699h-7.407l2.901-14.928c.33-1.698.208-2.856-.365-3.474-.573-.617-1.793-.926-3.658-.926h-5.829l-3.756 19.327H51.46l6.558-33.739h7.292z"/><path d="M92.136 67.864c2.793 0 4.878-.515 6.198-1.53 1.304-1.006 2.206-2.747 2.679-5.175.44-2.27.273-3.854-.5-4.71-.788-.874-2.493-1.317-5.067-1.317h-4.463l-2.475 12.732zM77.54 83.547a.694.694 0 0 1-.682-.828l6.557-33.738a.695.695 0 0 1 .682-.561H98.23c4.442 0 7.748 1.206 9.826 3.585 2.089 2.39 2.734 5.734 1.917 9.935a15.878 15.878 0 0 1-1.699 4.724 15.838 15.838 0 0 1-3.128 3.92c-1.53 1.432-3.265 2.472-5.147 3.083-1.852.604-4.232.91-7.071.91h-5.723l-1.633 8.408a.695.695 0 0 1-.683.562z"/><path fill="#fff" d="M91.555 55.826h3.891c3.107 0 4.186.682 4.552 1.089.61.674.724 2.097.333 4.112-.44 2.257-1.254 3.858-2.421 4.756-1.195.92-3.139 1.386-5.773 1.386h-2.786l2.204-11.342zm6.674-8.1H84.096a1.39 1.39 0 0 0-1.363 1.123l-6.558 33.739a1.39 1.39 0 0 0 1.364 1.653h7.35a1.39 1.39 0 0 0 1.363-1.124l1.525-7.846h5.15c2.911 0 5.364-.318 7.286-.944 1.978-.642 3.797-1.731 5.408-3.238a16.52 16.52 0 0 0 3.258-4.086c.832-1.487 1.428-3.147 1.775-4.931.86-4.423.162-7.964-2.076-10.524-2.216-2.537-5.697-3.823-10.35-3.823zM87.666 68.557h4.47c2.964 0 5.17-.557 6.622-1.675 1.45-1.116 2.428-2.98 2.936-5.591.487-2.508.266-4.277-.665-5.308-.93-1.03-2.791-1.546-5.583-1.546h-5.035Zm10.563-19.445c4.251 0 7.354 1.117 9.303 3.348 1.95 2.232 2.537 5.347 1.759 9.346-.32 1.648-.862 3.154-1.624 4.518-.763 1.366-1.76 2.614-2.992 3.747-1.467 1.373-3.097 2.352-4.892 2.935-1.793.584-4.078.875-6.856.875h-6.295l-1.745 8.97h-7.35l6.558-33.739h14.133"/><defs><radialGradient id="a" cx="0" cy="0" r="1" gradientTransform="matrix(84.04136 0 0 84.04136 38.426 42.169)" gradientUnits="userSpaceOnUse"><stop stop-color="#AEB2D5"/><stop offset=".3" stop-color="#AEB2D5"/><stop offset=".75" stop-color="#484C89"/><stop offset="1" stop-color="#484C89"/></radialGradient></defs></g>
  <text x="420" y="300" class="text">PHP - PHP License</text>

  <g transform="translate(318, 341) scale(0.6)"><g id="surface1">
<path style=" stroke:none;fill-rule:nonzero;fill:rgb(94.117647%,32.54902%,25.098039%);fill-opacity:1;" d="M 26.027344 0.136719 C 25.824219 0.214844 20.085938 3.484375 13.28125 7.394531 C 5.035156 12.136719 0.800781 14.632812 0.574219 14.867188 C 0.394531 15.070312 0.191406 15.421875 0.128906 15.644531 C -0.0429688 16.21875 -0.0546875 100.347656 0.117188 100.953125 C 0.179688 101.1875 0.382812 101.53125 0.566406 101.722656 C 1.011719 102.191406 50.238281 130.496094 50.835938 130.632812 C 51.113281 130.699219 51.425781 130.6875 51.734375 130.601562 C 52.40625 130.433594 101.503906 102.191406 101.941406 101.730469 C 102.121094 101.53125 102.324219 101.1875 102.390625 100.953125 C 102.476562 100.675781 102.507812 96.277344 102.507812 87.015625 L 102.507812 73.480469 L 114.476562 66.605469 C 125.761719 60.117188 126.453125 59.710938 126.742188 59.265625 L 127.039062 58.785156 L 127.039062 44.207031 C 127.039062 28.335938 127.070312 29.230469 126.441406 28.65625 C 126.273438 28.507812 120.523438 25.152344 113.652344 21.195312 L 101.171875 14.015625 L 99.785156 14.015625 L 87.574219 21.027344 C 80.851562 24.894531 75.136719 28.199219 74.859375 28.378906 C 74.582031 28.5625 74.25 28.902344 74.113281 29.148438 L 73.867188 29.574219 L 73.8125 43.308594 L 73.761719 57.046875 L 63.679688 62.855469 C 58.132812 66.042969 53.515625 68.683594 53.417969 68.707031 C 53.238281 68.757812 53.226562 67.449219 53.226562 42.203125 L 53.226562 15.632812 L 52.960938 15.175781 C 52.628906 14.621094 54.121094 15.507812 39.136719 6.894531 C 26.570312 -0.332031 26.871094 -0.179688 26.027344 0.136719 Z M 37.578125 10.65625 C 42.835938 13.671875 47.136719 16.167969 47.136719 16.199219 C 47.136719 16.230469 42.527344 18.894531 36.894531 22.132812 L 26.644531 28.015625 L 16.414062 22.132812 C 10.792969 18.894531 6.1875 16.230469 6.1875 16.199219 C 6.1875 16.167969 10.785156 13.503906 16.40625 10.273438 L 26.613281 4.402344 L 27.316406 4.785156 C 27.710938 5 32.332031 7.640625 37.578125 10.65625 Z M 110.730469 24.191406 C 116.265625 27.378906 120.84375 30.011719 120.886719 30.054688 C 121.003906 30.160156 100.703125 41.828125 100.425781 41.816406 C 100.148438 41.808594 80.097656 30.246094 80.105469 30.105469 C 80.117188 29.945312 100.289062 18.339844 100.492188 18.371094 C 100.585938 18.394531 105.195312 21.015625 110.730469 24.191406 Z M 14.828125 25.875 L 24.585938 31.492188 L 24.640625 59.304688 L 24.691406 87.121094 L 24.929688 87.496094 C 25.054688 87.695312 25.289062 87.964844 25.460938 88.089844 C 25.621094 88.207031 31.050781 91.300781 37.523438 94.953125 L 49.28125 101.59375 L 49.28125 113.359375 C 49.28125 119.816406 49.238281 125.113281 49.183594 125.113281 C 49.140625 125.113281 38.976562 119.296875 26.601562 112.175781 L 4.105469 99.238281 L 4.074219 59.464844 L 4.054688 19.703125 L 4.554688 19.980469 C 4.84375 20.132812 9.460938 22.785156 14.828125 25.875 Z M 49.28125 45.453125 L 49.28125 71.082031 L 48.886719 71.339844 C 48.351562 71.679688 28.8125 82.910156 28.746094 82.910156 C 28.714844 82.910156 28.691406 71.339844 28.691406 57.195312 L 28.703125 31.492188 L 38.910156 25.621094 C 44.523438 22.390625 49.152344 19.769531 49.207031 19.789062 C 49.246094 19.8125 49.28125 31.363281 49.28125 45.453125 Z M 88.222656 39.558594 L 98.453125 45.441406 L 98.453125 57.101562 C 98.453125 68.164062 98.441406 68.757812 98.273438 68.695312 C 98.164062 68.652344 93.535156 66 87.980469 62.800781 L 77.867188 56.992188 L 77.867188 45.335938 C 77.867188 38.917969 77.898438 33.675781 77.929688 33.675781 C 77.972656 33.675781 82.601562 36.320312 88.222656 39.558594 Z M 123.09375 45.261719 C 123.09375 51.644531 123.050781 56.910156 123.007812 56.960938 C 122.933594 57.078125 102.699219 68.738281 102.570312 68.738281 C 102.539062 68.738281 102.507812 63.496094 102.507812 57.078125 L 102.507812 45.421875 L 112.714844 39.546875 C 118.335938 36.320312 122.964844 33.675781 123.007812 33.675781 C 123.0625 33.675781 123.09375 38.886719 123.09375 45.261719 Z M 86.230469 66.46875 C 94.835938 71.421875 96.320312 72.308594 96.171875 72.425781 C 96.074219 72.488281 92.8125 74.363281 88.929688 76.582031 C 85.046875 78.796875 74.988281 84.53125 66.570312 89.328125 L 51.273438 98.054688 L 50.785156 97.789062 C 47.863281 96.191406 30.910156 86.546875 30.910156 86.472656 C 30.902344 86.3125 75.765625 60.53125 75.945312 60.597656 C 76.03125 60.628906 80.660156 63.269531 86.230469 66.46875 Z M 98.433594 87.558594 L 98.398438 99.238281 L 75.914062 112.175781 C 63.542969 119.296875 53.375 125.113281 53.324219 125.113281 C 53.269531 125.113281 53.226562 120.359375 53.226562 113.359375 L 53.226562 101.59375 L 75.765625 88.742188 C 88.148438 81.675781 98.324219 75.890625 98.378906 75.878906 C 98.421875 75.878906 98.441406 81.132812 98.433594 87.558594 Z M 98.433594 87.558594 "/>
</g></g>
  <text x="420" y="380" class="text">Laravel - MIT License</text>

  <g transform="translate(318, 421) scale(0.6)"><path fill="#00599c" d="M118.766 95.82c.89-1.543 1.441-3.28 1.441-4.843V36.78c0-1.558-.55-3.297-1.441-4.84l-55.32 31.94Zm0 0"/>
  <path fill="#004482" d="m68.36 126.586 46.933-27.094c1.352-.781 2.582-2.129 3.473-3.672l-55.32-31.94L8.12 95.82c.89 1.543 2.121 2.89 3.473 3.672l46.933 27.094c2.703 1.562 7.13 1.562 9.832 0Zm0 0"/>
  <path fill="#659ad2" d="M118.766 31.941c-.891-1.546-2.121-2.894-3.473-3.671L68.359 1.172c-2.703-1.563-7.129-1.563-9.832 0L11.594 28.27C8.89 29.828 6.68 33.66 6.68 36.78v54.196c0 1.562.55 3.3 1.441 4.843L63.445 63.88Zm0 0"/>
  <path fill="#fff" d="M63.445 26.035c-20.867 0-37.843 16.977-37.843 37.844s16.976 37.844 37.843 37.844c13.465 0 26.024-7.247 32.77-18.91L79.84 73.335c-3.38 5.84-9.66 9.465-16.395 9.465-10.433 0-18.922-8.488-18.922-18.922 0-10.434 8.49-18.922 18.922-18.922 6.73 0 13.017 3.629 16.39 9.465l16.38-9.477c-6.75-11.664-19.305-18.91-32.77-18.91zM92.88 57.57v4.207h-4.207v4.203h4.207v4.207h4.203V65.98h4.203v-4.203h-4.203V57.57H92.88zm15.766 0v4.207h-4.204v4.203h4.204v4.207h4.207V65.98h4.203v-4.203h-4.203V57.57h-4.207z"/></g>
  <text x="420" y="460" class="text">IRC Client (C++) - Proprietary/MIT Compatible</text>

  <g transform="translate(318, 501) scale(0.6)"><path fill="navy" d="M127.3 15.1c0-7.9-6.4-14.3-14.3-14.3S98.6 7.1 98.6 15.1 105 29.4 113 29.4s14.3-6.4 14.3-14.3"/><path fill="navy" d="M64 15.1c-27 0-49 21.9-49 49s21.9 49 49 49 49-21.9 49-49-22-49-49-49zm6 28.6c0-7.9 6.4-14.3 14.3-14.3s14.3 6.4 14.3 14.3S92.2 58 84.3 58 70 51.6 70 43.7z"/><path fill="gray" d="M66.3 128l-.1-1.5c1.8-.1 3.6-.2 5.4-.4l.2 1.5c-1.8.2-3.7.3-5.5.4zm-5.6 0c-1.9-.1-3.7-.3-5.6-.5l.2-1.5c1.8.2 3.6.4 5.4.5v1.5zm16.6-1.4l-.3-1.4c1.8-.4 3.5-.8 5.3-1.4l.4 1.4c-1.7.6-3.5 1.1-5.4 1.4zm-27.7-.2c-1.8-.4-3.6-.9-5.4-1.5l.5-1.4c1.7.6 3.5 1 5.3 1.5l-.4 1.4zm38.4-3l-.6-1.4c1.7-.7 3.3-1.4 5-2.3l.7 1.3c-1.7.9-3.4 1.7-5.1 2.4zm-49-.4c-1.7-.7-3.4-1.5-5-2.4l.7-1.3c1.6.9 3.3 1.6 4.9 2.4L39 123zm59-4.7l-.8-1.2c1.5-1 3-2 4.5-3.1l.9 1.2c-1.5 1.1-3.1 2.1-4.6 3.1zm-68.8-.6c-1.6-1-3.1-2.1-4.5-3.2l.9-1.2c1.4 1.1 2.9 2.2 4.4 3.2l-.8 1.2zm77.7-6.1l-1-1.1c1.3-1.2 2.7-2.5 3.9-3.8l1.1 1c-1.3 1.3-2.7 2.6-4 3.9zm-86.5-.7c-1.4-1.3-2.7-2.6-3.9-4l1.1-1c1.2 1.3 2.5 2.7 3.8 3.9l-1 1.1zm94.1-7.5l-1.2-.9c1.1-1.4 2.2-2.9 3.2-4.4l1.2.8c-1 1.5-2.1 3.1-3.2 4.5zm-101.6-.8c-1.1-1.5-2.2-3-3.2-4.6l1.2-.8c1 1.5 2 3 3.1 4.5l-1.1.9zm107.7-8.5l-1.3-.7c.9-1.6 1.6-3.3 2.4-4.9l1.3.5-2.4 5.1zM7 93.1c-.8-1.7-1.6-3.4-2.3-5.1l1.3-.5c.7 1.7 1.4 3.3 2.3 5l-1.3.6zm117.9-9.3l-1.4-.5c.6-1.7 1-3.5 1.5-5.3l1.4.3c-.4 1.9-.9 3.7-1.5 5.5zm-122.1-1c-.5-1.8-1-3.6-1.4-5.4l1.4-.3c.4 1.8.8 3.5 1.4 5.3l-1.4.4zm124.6-9.9l-1.5-.2c.2-1.8.4-3.6.5-5.4l1.5.1c0 1.8-.2 3.7-.5 5.5zM.5 71.9C.2 70 .1 68.2 0 66.3l1.5-.1c.1 1.8.2 3.6.4 5.4l-1.4.3zm126-10.1c-.1-1.8-.2-3.6-.4-5.4l1.5-.2c.2 1.8.4 3.7.4 5.6h-1.5zm-125-1L0 60.7c.1-1.9.3-3.7.5-5.6l1.5.3c-.2 1.8-.4 3.6-.5 5.4zM125.2 51c-.4-1.8-.8-3.6-1.4-5.3l1.4-.4c.5 1.8 1 3.6 1.4 5.4l-1.4.3zM3 50l-1.4-.3c.4-1.8.9-3.6 1.5-5.4l1.4.5C3.9 46.5 3.4 48.2 3 50zm119-9.4c-.7-1.7-1.4-3.4-2.3-5l1.3-.7c.8 1.7 1.6 3.4 2.3 5.1l-1.3.6zm-115.6-1L5 39.1c.7-1.7 1.5-3.4 2.4-5l1.3.7c-.8 1.5-1.6 3.2-2.3 4.8zm5.1-9.6l-1.2-.8c1-1.6 2.1-3.1 3.2-4.5l1.2.9c-1.2 1.4-2.2 2.9-3.2 4.4zm6.7-8.6l-1.1-1c1.3-1.4 2.6-2.7 4-3.9l1 1.1c-1.4 1.2-2.7 2.5-3.9 3.8zm8.1-7.3l-.9-1.2c1.5-1.1 3-2.2 4.6-3.2l.8 1.2c-1.6 1.1-3.1 2.1-4.5 3.2zm67-5.4c-1.6-.8-3.3-1.6-4.9-2.3l.5-1.4c1.7.7 3.4 1.5 5 2.4l-.6 1.3zm-57.8-.4L34.8 7c1.7-.8 3.4-1.6 5.1-2.3l.6 1.3c-1.7.7-3.4 1.5-5 2.3zm47.7-3.8c-1.7-.6-3.5-1-5.3-1.4l.3-1.4c1.8.4 3.6.9 5.4 1.5l-.4 1.3zm-37.6-.3l-.4-1.4c1.8-.5 3.6-1 5.4-1.4l.3 1.4c-1.8.4-3.6.9-5.3 1.4zm27-2.2c-1.8-.2-3.6-.4-5.4-.5l.1-1.5c1.9.1 3.7.3 5.6.5L72.6 2zm-16.3-.1L56.1.4c1.8-.2 3.7-.4 5.6-.4l.1 1.5c-1.9 0-3.7.2-5.5.4z"/></g>
  <text x="420" y="540" class="text">LuaJIT - MIT License</text>

  <g transform="translate(318, 581) scale(0.6)"><path d="M0 8.934l49.854.158 14.167 24.47 14.432-24.47L128 8.935l-63.834 110.14zm126.98.637l-24.36.02-38.476 66.053L25.691 9.592.942 9.572l63.211 107.89zm-25.149-.008l-22.745.168-15.053 24.647L49.216 9.73l-22.794-.168 37.731 64.476zm-75.834-.17l23.002.009m-23.002-.01l23.002.01" fill="none"/><path d="M25.997 9.393l23.002.009L64.035 34.36 79.018 9.404 102 9.398 64.15 75.053z" fill="#35495e"/><path d="M.91 9.569l25.067-.172 38.15 65.659L101.98 9.401l25.11.026-62.966 108.06z" fill="#41b883"/></g>
  <text x="420" y="620" class="text">Vue.js - MIT License</text>
</svg>
